<?xml version="1.0" encoding="UTF-8" standalone="no"?>
<!DOCTYPE svg PUBLIC "-//W3C//DTD SVG 1.1//EN" "http://www.w3.org/Graphics/SVG/1.1/DTD/svg11.dtd">
<svg width="100%" height="100%" viewBox="0 0 1280 800" version="1.1" xmlns="http://www.w3.org/2000/svg" xmlns:xlink="http://www.w3.org/1999/xlink" xml:space="preserve" xmlns:serif="http://www.serif.com/" style="fill-rule:evenodd;clip-rule:evenodd;stroke-linejoin:round;stroke-miterlimit:2;">
    <rect id="Artboard1" x="0" y="0" width="1280" height="800" style="fill:none;"/>
    <g>
        <g transform="matrix(0.657998,0,0,1.82239,111.552,632.96)">
            <path d="M23.9,-337.95C27.467,-326.983 26.65,-316.367 21.45,-306.1C16.183,-295.833 8.067,-288.917 -2.9,-285.35L-199.928,-223.86L-199.928,-363.3L15.65,-363.3L23.9,-337.95Z" style="fill:rgb(255,101,167);"/>
        </g>
        <g transform="matrix(0.828146,0,0,1.78541,533.563,78.3354)">
            <path d="M798.5,72.7C788.2,67.467 781.266,59.367 777.7,48.4L742,-62.056L951.284,-49.504L952.099,47.192L830.3,75.2C819.333,78.767 808.733,77.933 798.5,72.7Z" style="fill:rgb(67,103,199);"/>
        </g>
        <g id="blue-bubble-1" transform="matrix(1.1538,0,0,1.1538,188.408,94.006)">
            <path d="M0,454.9C4.267,450.6 9.483,448.45 15.65,448.45C21.816,448.45 27.1,450.6 31.5,454.9C35.767,459.3 37.9,464.567 37.9,470.7C37.9,476.867 35.767,482.1 31.5,486.4C27.1,490.8 21.816,493 15.65,493C9.483,493 4.267,490.8 0,486.4C-4.4,482.1 -6.6,476.867 -6.6,470.7C-6.6,464.567 -4.4,459.3 0,454.9Z" style="fill:rgb(67,103,199);fill-opacity:0;"/>
        </g>
        <g id="blue-bubble-2" transform="matrix(1.1538,0,0,1.1538,1022.95,-297.317)">
            <path d="M0,454.9C4.267,450.6 9.483,448.45 15.65,448.45C21.816,448.45 27.1,450.6 31.5,454.9C35.767,459.3 37.9,464.567 37.9,470.7C37.9,476.867 35.767,482.1 31.5,486.4C27.1,490.8 21.816,493 15.65,493C9.483,493 4.267,490.8 0,486.4C-4.4,482.1 -6.6,476.867 -6.6,470.7C-6.6,464.567 -4.4,459.3 0,454.9Z" style="fill:rgb(67,103,199);fill-opacity:0;"/>
        </g>
        <g id="red-bubble-3" transform="matrix(1.18349,0,0,1.1777,520.599,598.978)">
            <path d="M381.15,-304.6C381.15,-303.2 380.684,-302.017 379.75,-301.05C378.75,-300.083 377.55,-299.6 376.15,-299.6C374.783,-299.6 373.616,-300.083 372.65,-301.05C371.65,-302.017 371.15,-303.2 371.15,-304.6C371.15,-305.967 371.65,-307.15 372.65,-308.15C373.616,-309.117 374.783,-309.6 376.15,-309.6C377.55,-309.6 378.75,-309.117 379.75,-308.15C380.684,-307.15 381.15,-305.967 381.15,-304.6Z" style="fill:rgb(255,101,167);fill-opacity:0;"/>
        </g>
        <g id="red-bubble-1" transform="matrix(1.18349,0,0,1.1777,191.732,346.872)">
            <path d="M720.65,23.25C720.65,21.883 721.116,20.7 722.05,19.7C723.05,18.733 724.25,18.25 725.65,18.25C727.017,18.25 728.184,18.733 729.15,19.7C730.15,20.7 730.65,21.883 730.65,23.25C730.65,24.65 730.15,25.834 729.15,26.799C728.184,27.766 727.017,28.25 725.65,28.25C724.25,28.25 723.05,27.766 722.05,26.799C721.116,25.834 720.65,24.65 720.65,23.25Z" style="fill:rgb(255,101,167);fill-opacity:0;"/>
        </g>
        <g id="blue-bubble-4" transform="matrix(1.1538,0,0,1.1538,227.67,170.163)">
            <path d="M0,453.55C0,452.184 0.467,451 1.4,450C2.4,449.033 3.6,448.55 5,448.55C6.367,448.55 7.533,449.033 8.5,450C9.5,451 10,452.184 10,453.55C10,454.95 9.5,456.134 8.5,457.1C7.533,458.067 6.367,458.55 5,458.55C3.6,458.55 2.4,458.067 1.4,457.1C0.467,456.134 0,454.95 0,453.55M662.75,0C662.75,-1.367 663.216,-2.55 664.15,-3.55C665.15,-4.516 666.35,-5 667.75,-5C669.117,-5 670.284,-4.516 671.25,-3.55C672.25,-2.55 672.75,-1.367 672.75,0C672.75,1.4 672.25,2.584 671.25,3.55C670.284,4.517 669.117,5 667.75,5C666.35,5 665.15,4.517 664.15,3.55C663.216,2.584 662.75,1.4 662.75,0" style="fill:rgb(216,223,255);fill-opacity:0;"/>
        </g>
        <g id="red-bubble-4" transform="matrix(1.18349,0,0,1.1777,141.121,750.272)">
            <path d="M745.65,-187.1C745.65,-188.467 746.116,-189.65 747.05,-190.65C748.05,-191.617 749.25,-192.1 750.65,-192.1C752.017,-192.1 753.184,-191.617 754.15,-190.65C755.15,-189.65 755.65,-188.467 755.65,-187.1C755.65,-185.7 755.15,-184.517 754.15,-183.55C753.184,-182.583 752.017,-182.1 750.65,-182.1C749.25,-182.1 748.05,-182.583 747.05,-183.55C746.116,-184.517 745.65,-185.7 745.65,-187.1Z" style="fill:rgb(255,101,167);fill-opacity:0;"/>
        </g>
        <g id="blue-bubble-3" transform="matrix(1.1538,0,0,1.1538,139.792,14.0975)">
            <path d="M747.6,355.75C749.167,357.317 749.95,359.2 749.95,361.4C749.95,363.6 749.167,365.466 747.6,367C746.067,368.567 744.2,369.35 742,369.35C739.8,369.35 737.917,368.567 736.35,367C734.817,365.466 734.05,363.6 734.05,361.4C734.05,359.2 734.817,357.317 736.35,355.75C737.917,354.216 739.8,353.45 742,353.45C744.2,353.45 746.067,354.216 747.6,355.75Z" style="fill:rgb(67,103,199);fill-opacity:0;"/>
        </g>
        <g id="red-bubble-2" transform="matrix(1.18349,0,0,1.1777,141.989,632.651)">
            <path d="M720.65,23.25C720.65,21.883 721.116,20.7 722.05,19.7C723.05,18.733 724.25,18.25 725.65,18.25C727.017,18.25 728.184,18.733 729.15,19.7C730.15,20.7 730.65,21.883 730.65,23.25C730.65,24.65 730.15,25.834 729.15,26.799C728.184,27.766 727.017,28.25 725.65,28.25C724.25,28.25 723.05,27.766 722.05,26.799C721.116,25.834 720.65,24.65 720.65,23.25Z" style="fill:rgb(255,101,167);fill-opacity:0;"/>
        </g>
    </g>
</svg>
